<svg xmlns="http://www.w3.org/2000/svg" xmlns:xlink="http://www.w3.org/1999/xlink" width="1080" zoomAndPan="magnify" viewBox="0 0 810 809.999993" height="1080" preserveAspectRatio="xMidYMid meet" version="1.2"><defs><clipPath id="fec3589056"><path d="M 377.09375 49.421875 L 424.242188 49.421875 L 424.242188 146.148438 L 377.09375 146.148438 Z M 377.09375 49.421875 "/></clipPath><clipPath id="a8be32d4db"><path d="M 377.09375 113.078125 L 425.816406 113.078125 L 425.816406 146.148438 L 377.09375 146.148438 Z M 377.09375 113.078125 "/></clipPath><clipPath id="404a8f574f"><path d="M 419.136719 113.078125 L 468.105469 113.078125 L 468.105469 146.148438 L 419.136719 146.148438 Z M 419.136719 113.078125 "/></clipPath><clipPath id="373e79fbba"><path d="M 383 1.292969 L 401 1.292969 L 401 62 L 383 62 Z M 383 1.292969 "/></clipPath><clipPath id="680fa1e067"><path d="M 444 1.292969 L 462 1.292969 L 462 62 L 444 62 Z M 444 1.292969 "/></clipPath><clipPath id="ead54024d8"><path d="M 421.101562 49.421875 L 468.105469 49.421875 L 468.105469 146.148438 L 421.101562 146.148438 Z M 421.101562 49.421875 "/></clipPath><clipPath id="ebdc82ebb7"><path d="M 0.558594 37 L 755.359375 37 L 755.359375 187 L 0.558594 187 Z M 0.558594 37 "/></clipPath><clipPath id="c37e343261"><rect x="0" width="756" y="0" height="150"/></clipPath><clipPath id="6a6943870b"><path d="M 3 158 L 752 158 L 752 251.519531 L 3 251.519531 Z M 3 158 "/></clipPath><clipPath id="6fe89ccfd9"><rect x="0" width="749" y="0" height="94"/></clipPath><clipPath id="61d9414d41"><path d="M 11.265625 101.972656 L 34.207031 101.972656 L 34.207031 147.707031 L 11.265625 147.707031 Z M 11.265625 101.972656 "/></clipPath><clipPath id="b807bb3b17"><path d="M 0.265625 0.972656 L 23.207031 0.972656 L 23.207031 46.707031 L 0.265625 46.707031 Z M 0.265625 0.972656 "/></clipPath><clipPath id="9b8baeedfa"><rect x="0" width="24" y="0" height="47"/></clipPath><clipPath id="e8c1895ba0"><rect x="0" width="756" y="0" height="252"/></clipPath></defs><g id="e171c774f5"><g transform="matrix(1,0,0,1,28,282)"><g clip-path="url(#e8c1895ba0)"><path style=" stroke:none;fill-rule:nonzero;fill:#4b5b71;fill-opacity:1;" d="M 438.292969 83.136719 L 395.472656 108.5625 L 393.3125 113.304688 C 393.414062 113.273438 393.515625 113.226562 393.613281 113.171875 L 439.503906 85.921875 L 438.292969 83.136719 "/><g clip-rule="nonzero" clip-path="url(#fec3589056)"><path style=" stroke:none;fill-rule:nonzero;fill:#4b5b71;fill-opacity:1;" d="M 421.816406 53.730469 C 422.328125 52.089844 425.183594 50.347656 423.542969 49.839844 C 421.902344 49.328125 420.160156 50.242188 419.648438 51.882812 C 417.859375 57.605469 410.441406 75.007812 402.429688 93.066406 C 393.214844 113.828125 380.410156 140.304688 377.09375 146.332031 L 391.136719 146.332031 C 397.03125 129.820312 419.066406 62.523438 421.816406 53.730469 "/></g><path style=" stroke:none;fill-rule:nonzero;fill:#4b5b71;fill-opacity:1;" d="M 424.175781 35.554688 C 424.175781 34.695312 423.480469 33.996094 422.621094 33.996094 C 421.757812 33.996094 421.0625 34.695312 421.0625 35.554688 L 418.796875 116.46875 C 418.796875 117.328125 421.757812 118.023438 422.621094 118.023438 C 423.480469 118.023438 426.441406 117.328125 426.441406 116.46875 L 424.175781 35.554688 "/><g clip-rule="nonzero" clip-path="url(#a8be32d4db)"><path style=" stroke:none;fill-rule:nonzero;fill:#4b5b71;fill-opacity:1;" d="M 424.820312 118.671875 C 426.039062 117.453125 426.039062 115.480469 424.820312 114.265625 C 423.605469 113.046875 421.632812 113.046875 420.417969 114.265625 L 379.519531 145.253906 C 378.578125 145.253906 377.734375 145.671875 377.160156 146.332031 L 399.046875 146.332031 L 424.820312 118.671875 "/></g><g clip-rule="nonzero" clip-path="url(#404a8f574f)"><path style=" stroke:none;fill-rule:nonzero;fill:#4b5b71;fill-opacity:1;" d="M 424.796875 114.253906 C 423.574219 113.050781 421.605469 113.066406 420.40625 114.289062 C 419.203125 115.511719 419.21875 117.480469 420.441406 118.683594 L 446.472656 146.332031 L 468.035156 146.332031 C 467.46875 145.738281 466.667969 145.367188 465.777344 145.367188 L 424.796875 114.253906 "/></g><path style=" stroke:none;fill-rule:evenodd;fill:#4b5b71;fill-opacity:1;" d="M 422.621094 37.304688 C 425.6875 37.304688 428.195312 34.800781 428.195312 31.730469 C 428.195312 28.660156 425.6875 26.15625 422.621094 26.15625 C 419.546875 26.15625 417.042969 28.660156 417.042969 31.730469 C 417.042969 34.800781 419.546875 37.304688 422.621094 37.304688 "/><g clip-rule="nonzero" clip-path="url(#373e79fbba)"><path style=" stroke:none;fill-rule:nonzero;fill:#4b5b71;fill-opacity:1;" d="M 397.914062 61.613281 C 398.570312 62.164062 399.550781 62.078125 400.101562 61.417969 C 400.652344 60.761719 400.566406 59.78125 399.910156 59.230469 C 395.789062 55.785156 392.542969 51.523438 390.324219 46.785156 C 388.113281 42.046875 386.921875 36.824219 386.921875 31.449219 C 386.921875 26.226562 388.050781 21.136719 390.15625 16.492188 C 392.265625 11.84375 395.351562 7.640625 399.277344 4.207031 C 399.921875 3.644531 399.988281 2.664062 399.421875 2.015625 C 398.859375 1.371094 397.878906 1.304688 397.234375 1.871094 C 392.964844 5.605469 389.609375 10.167969 387.320312 15.210938 C 385.03125 20.261719 383.808594 25.785156 383.808594 31.449219 C 383.808594 37.265625 385.101562 42.9375 387.515625 48.097656 C 389.925781 53.253906 393.449219 57.882812 397.914062 61.613281 "/></g><path style=" stroke:none;fill-rule:nonzero;fill:#4b5b71;fill-opacity:1;" d="M 403.824219 51.359375 C 404.480469 51.910156 405.464844 51.824219 406.015625 51.164062 C 406.566406 50.507812 406.476562 49.527344 405.820312 48.976562 C 403.234375 46.8125 401.195312 44.140625 399.804688 41.167969 C 398.417969 38.203125 397.675781 34.925781 397.675781 31.550781 C 397.675781 28.273438 398.382812 25.078125 399.703125 22.167969 C 401.023438 19.25 402.960938 16.613281 405.421875 14.460938 C 406.066406 13.898438 406.132812 12.917969 405.566406 12.269531 C 405.003906 11.625 404.023438 11.5625 403.378906 12.125 C 400.574219 14.578125 398.367188 17.574219 396.867188 20.886719 C 395.363281 24.203125 394.558594 27.832031 394.558594 31.550781 C 394.558594 35.367188 395.410156 39.09375 396.996094 42.484375 C 398.578125 45.871094 400.894531 48.910156 403.824219 51.359375 "/><path style=" stroke:none;fill-rule:nonzero;fill:#4b5b71;fill-opacity:1;" d="M 409.277344 40.640625 C 409.933594 41.191406 410.917969 41.101562 411.464844 40.445312 C 412.019531 39.785156 411.929688 38.804688 411.273438 38.253906 C 410.289062 37.433594 409.515625 36.421875 408.992188 35.300781 C 408.46875 34.179688 408.1875 32.9375 408.1875 31.65625 C 408.1875 30.410156 408.457031 29.199219 408.957031 28.097656 C 409.457031 26.992188 410.191406 25.996094 411.117188 25.183594 C 411.765625 24.617188 411.828125 23.636719 411.265625 22.992188 C 410.703125 22.347656 409.71875 22.28125 409.074219 22.847656 C 407.800781 23.960938 406.800781 25.320312 406.121094 26.820312 C 405.4375 28.324219 405.074219 29.972656 405.074219 31.65625 C 405.074219 33.382812 405.460938 35.070312 406.179688 36.613281 C 406.902344 38.152344 407.949219 39.53125 409.277344 40.640625 "/><g clip-rule="nonzero" clip-path="url(#680fa1e067)"><path style=" stroke:none;fill-rule:nonzero;fill:#4b5b71;fill-opacity:1;" d="M 445.328125 59.230469 C 444.671875 59.78125 444.585938 60.761719 445.136719 61.417969 C 445.683594 62.078125 446.664062 62.164062 447.324219 61.613281 C 451.789062 57.882812 455.3125 53.253906 457.722656 48.097656 C 460.136719 42.9375 461.429688 37.265625 461.429688 31.449219 C 461.429688 25.785156 460.207031 20.261719 457.914062 15.210938 C 455.628906 10.167969 452.273438 5.605469 448.003906 1.871094 C 447.359375 1.304688 446.378906 1.371094 445.816406 2.015625 C 445.25 2.664062 445.316406 3.644531 445.960938 4.207031 C 449.886719 7.640625 452.972656 11.84375 455.082031 16.492188 C 457.1875 21.136719 458.3125 26.226562 458.3125 31.449219 C 458.3125 36.824219 457.128906 42.046875 454.914062 46.785156 C 452.699219 51.523438 449.449219 55.785156 445.328125 59.230469 "/></g><path style=" stroke:none;fill-rule:nonzero;fill:#4b5b71;fill-opacity:1;" d="M 439.417969 48.976562 C 438.757812 49.527344 438.671875 50.507812 439.226562 51.164062 C 439.777344 51.824219 440.757812 51.910156 441.414062 51.359375 C 444.34375 48.910156 446.660156 45.871094 448.242188 42.484375 C 449.828125 39.09375 450.675781 35.367188 450.675781 31.550781 C 450.675781 27.832031 449.875 24.203125 448.371094 20.886719 C 446.867188 17.574219 444.664062 14.578125 441.863281 12.125 C 441.214844 11.5625 440.234375 11.625 439.671875 12.269531 C 439.105469 12.917969 439.171875 13.898438 439.816406 14.460938 C 442.277344 16.613281 444.214844 19.25 445.535156 22.167969 C 446.859375 25.078125 447.5625 28.273438 447.5625 31.550781 C 447.5625 34.925781 446.820312 38.203125 445.429688 41.167969 C 444.042969 44.140625 442.003906 46.8125 439.417969 48.976562 "/><path style=" stroke:none;fill-rule:nonzero;fill:#4b5b71;fill-opacity:1;" d="M 433.964844 38.253906 C 433.308594 38.804688 433.21875 39.785156 433.769531 40.445312 C 434.324219 41.101562 435.304688 41.191406 435.960938 40.640625 C 437.289062 39.53125 438.335938 38.152344 439.058594 36.613281 C 439.777344 35.070312 440.164062 33.382812 440.164062 31.65625 C 440.164062 29.972656 439.800781 28.324219 439.117188 26.820312 C 438.4375 25.320312 437.433594 23.960938 436.164062 22.847656 C 435.519531 22.28125 434.539062 22.347656 433.972656 22.992188 C 433.40625 23.636719 433.472656 24.617188 434.117188 25.183594 C 435.046875 25.996094 435.78125 26.992188 436.28125 28.097656 C 436.78125 29.199219 437.050781 30.410156 437.050781 31.65625 C 437.050781 32.9375 436.769531 34.179688 436.246094 35.300781 C 435.71875 36.421875 434.949219 37.433594 433.964844 38.253906 "/><g clip-rule="nonzero" clip-path="url(#ead54024d8)"><path style=" stroke:none;fill-rule:nonzero;fill:#4b5b71;fill-opacity:1;" d="M 425.585938 51.882812 C 425.078125 50.242188 423.335938 49.328125 421.695312 49.839844 C 420.054688 50.347656 422.910156 52.089844 423.421875 53.730469 C 429.722656 73.875 443.175781 124.792969 454.464844 146.332031 L 468.105469 146.332031 C 464.8125 140.75 453.425781 117.425781 445.023438 98.492188 C 436.199219 78.605469 427.5625 58.195312 425.585938 51.882812 "/></g><path style=" stroke:none;fill-rule:nonzero;fill:#4b5b71;fill-opacity:1;" d="M 393.984375 111.832031 L 422.105469 119.121094 L 422.484375 117.664062 L 422.105469 119.125 C 422.410156 119.203125 422.714844 119.183594 422.992188 119.085938 L 451.035156 111.875 L 449.777344 109.09375 L 422.488281 116.113281 L 395.25 109.054688 L 393.984375 111.832031 "/><path style=" stroke:none;fill-rule:nonzero;fill:#4b5b71;fill-opacity:1;" d="M 405.929688 85.125 L 450.800781 111.769531 C 450.878906 111.816406 450.957031 111.851562 451.035156 111.882812 L 448.875 107.121094 L 407.144531 82.34375 L 405.929688 85.125 "/><g clip-rule="nonzero" clip-path="url(#ebdc82ebb7)"><g transform="matrix(1,0,0,1,0,37)"><g id="40478792e6" clip-path="url(#c37e343261)"><g style="fill:#2278e4;fill-opacity:1;"><g transform="translate(0.616049, 112.301951)"><path style="stroke:none" d="M 11.15625 -104.0625 L 70.765625 -104.0625 C 79.679688 -103.96875 87.457031 -102.457031 94.09375 -99.53125 C 100.738281 -96.613281 106.265625 -92.648438 110.671875 -87.640625 C 115.085938 -82.640625 118.410156 -77.066406 120.640625 -70.921875 C 122.878906 -64.773438 124 -58.476562 124 -52.03125 C 124 -45.59375 122.878906 -39.300781 120.640625 -33.15625 C 118.410156 -27.007812 115.085938 -21.429688 110.671875 -16.421875 C 106.265625 -11.421875 100.738281 -7.457031 94.09375 -4.53125 C 87.457031 -1.613281 79.679688 -0.101562 70.765625 0 L 11.15625 0 L 11.15625 -20.8125 L 70.625 -20.8125 C 76.664062 -20.914062 81.691406 -22.503906 85.703125 -25.578125 C 89.722656 -28.648438 92.75 -32.535156 94.78125 -37.234375 C 96.8125 -41.941406 97.828125 -46.875 97.828125 -52.03125 C 97.828125 -57.289062 96.8125 -62.296875 94.78125 -67.046875 C 92.75 -71.804688 89.675781 -75.695312 85.5625 -78.71875 C 81.445312 -81.738281 76.269531 -83.25 70.03125 -83.25 L 11.15625 -83.25 Z M 11.15625 -104.0625 "/></g></g><g style="fill:#2278e4;fill-opacity:1;"><g transform="translate(132.640706, 112.301951)"><path style="stroke:none" d="M 60.21875 -39.09375 L 11.15625 -39.09375 L 11.15625 -59.921875 L 69.578125 -59.921875 C 74.335938 -59.921875 77.90625 -61.132812 80.28125 -63.5625 C 82.65625 -65.988281 83.84375 -68.640625 83.84375 -71.515625 C 83.84375 -74.390625 82.65625 -77.039062 80.28125 -79.46875 C 77.90625 -81.894531 74.335938 -83.109375 69.578125 -83.109375 L 11.15625 -83.109375 L 11.15625 -104.0625 L 73.890625 -104.0625 C 81.523438 -104.0625 87.867188 -102.476562 92.921875 -99.3125 C 97.972656 -96.144531 101.757812 -92.082031 104.28125 -87.125 C 106.8125 -82.164062 108.078125 -76.960938 108.078125 -71.515625 C 108.078125 -65.171875 106.34375 -59.148438 102.875 -53.453125 C 99.40625 -47.753906 94.15625 -43.664062 87.125 -41.1875 L 119.09375 0 L 87.71875 0 Z M 60.21875 -39.09375 "/></g></g><g style="fill:#2278e4;fill-opacity:1;"><g transform="translate(256.190804, 112.301951)"><path style="stroke:none" d="M 11.15625 -104.0625 L 104.0625 -104.0625 L 104.0625 -83.109375 L 11.15625 -83.109375 Z M 11.15625 -62.4375 L 104.0625 -62.4375 L 104.0625 -41.625 L 11.15625 -41.625 Z M 11.59375 -20.96875 L 104.0625 -20.96875 L 104.0625 0 L 11.59375 0 Z M 11.59375 -20.96875 "/></g></g><g style="fill:#2278e4;fill-opacity:1;"><g transform="translate(370.85544, 112.301951)"><path style="stroke:none" d=""/></g></g><g style="fill:#2278e4;fill-opacity:1;"><g transform="translate(406.537771, 112.301951)"><path style="stroke:none" d=""/></g></g><g style="fill:#2278e4;fill-opacity:1;"><g transform="translate(442.220103, 112.301951)"><path style="stroke:none" d=""/></g></g><g style="fill:#2278e4;fill-opacity:1;"><g transform="translate(477.948998, 112.301951)"><path style="stroke:none" d="M 11.15625 0 L 11.15625 -104.0625 L 36.28125 -104.0625 L 96.484375 0 L 71.515625 0 L 36.28125 -61.703125 L 36.28125 0 Z M 86.078125 -50.40625 L 116.859375 -104.0625 L 141.984375 -104.0625 L 141.984375 0 L 116.859375 0 L 116.859375 -61.703125 L 98.71875 -30.03125 Z M 86.078125 -50.40625 "/></g></g><g style="fill:#2278e4;fill-opacity:1;"><g transform="translate(630.936986, 112.301951)"><path style="stroke:none" d="M 113.875 -91.578125 L 101.6875 -71.359375 C 98.519531 -74.140625 94.582031 -76.546875 89.875 -78.578125 C 85.164062 -80.609375 80.207031 -82.164062 75 -83.25 C 69.800781 -84.34375 64.875 -84.890625 60.21875 -84.890625 C 54.757812 -84.890625 50.171875 -84.070312 46.453125 -82.4375 C 42.742188 -80.800781 40.890625 -78.203125 40.890625 -74.640625 C 40.890625 -72.054688 42.203125 -70.019531 44.828125 -68.53125 C 47.453125 -67.050781 50.941406 -65.8125 55.296875 -64.8125 C 59.660156 -63.820312 64.46875 -62.878906 69.71875 -61.984375 C 74.976562 -61.097656 80.207031 -59.9375 85.40625 -58.5 C 90.613281 -57.0625 95.394531 -55.148438 99.75 -52.765625 C 104.113281 -50.390625 107.609375 -47.269531 110.234375 -43.40625 C 112.867188 -39.539062 114.1875 -34.632812 114.1875 -28.6875 C 114.1875 -22.945312 112.820312 -18.039062 110.09375 -13.96875 C 107.363281 -9.90625 103.671875 -6.585938 99.015625 -4.015625 C 94.359375 -1.441406 89.054688 0.4375 83.109375 1.625 C 77.160156 2.820312 70.96875 3.421875 64.53125 3.421875 C 57.488281 3.421875 50.445312 2.773438 43.40625 1.484375 C 36.375 0.191406 29.804688 -1.640625 23.703125 -4.015625 C 17.609375 -6.390625 12.429688 -9.210938 8.171875 -12.484375 L 20.515625 -33.296875 C 23.785156 -30.328125 28.070312 -27.726562 33.375 -25.5 C 38.675781 -23.269531 44.300781 -21.554688 50.25 -20.359375 C 56.195312 -19.171875 61.796875 -18.578125 67.046875 -18.578125 C 72.597656 -18.578125 77.253906 -19.34375 81.015625 -20.875 C 84.785156 -22.414062 86.671875 -24.820312 86.671875 -28.09375 C 86.671875 -30.769531 85.359375 -32.898438 82.734375 -34.484375 C 80.109375 -36.078125 76.613281 -37.394531 72.25 -38.4375 C 67.894531 -39.476562 63.140625 -40.515625 57.984375 -41.546875 C 52.828125 -42.585938 47.644531 -43.828125 42.4375 -45.265625 C 37.238281 -46.703125 32.457031 -48.632812 28.09375 -51.0625 C 23.738281 -53.5 20.242188 -56.648438 17.609375 -60.515625 C 14.984375 -64.378906 13.671875 -69.234375 13.671875 -75.078125 C 13.671875 -80.828125 14.882812 -85.707031 17.3125 -89.71875 C 19.75 -93.738281 23.097656 -97.007812 27.359375 -99.53125 C 31.617188 -102.0625 36.472656 -103.921875 41.921875 -105.109375 C 47.378906 -106.296875 53.128906 -106.890625 59.171875 -106.890625 C 65.804688 -106.890625 72.492188 -106.269531 79.234375 -105.03125 C 85.984375 -103.789062 92.351562 -102.03125 98.34375 -99.75 C 104.34375 -97.476562 109.519531 -94.753906 113.875 -91.578125 Z M 113.875 -91.578125 "/></g></g></g></g></g><g clip-rule="nonzero" clip-path="url(#6a6943870b)"><g transform="matrix(1,0,0,1,3,158)"><g id="2dee0cc016" clip-path="url(#6fe89ccfd9)"><g style="fill:#4b5b71;fill-opacity:1;"><g transform="translate(0.887547, 69.10558)"><path style="stroke:none" d="M 41.9375 0 L 35.84375 0 L 11.28125 -37.25 L 11.28125 0 L 5.171875 0 L 5.171875 -46.84375 L 11.28125 -46.84375 L 35.84375 -9.65625 L 35.84375 -46.84375 L 41.9375 -46.84375 Z M 41.9375 0 "/></g></g><g style="fill:#4b5b71;fill-opacity:1;"><g transform="translate(48.057013, 69.10558)"><path style="stroke:none" d="M 38.71875 -19.796875 C 38.71875 -18.628906 38.648438 -17.398438 38.515625 -16.109375 L 9.125 -16.109375 C 9.351562 -12.484375 10.59375 -9.648438 12.84375 -7.609375 C 15.101562 -5.578125 17.847656 -4.5625 21.078125 -4.5625 C 23.710938 -4.5625 25.910156 -5.175781 27.671875 -6.40625 C 29.441406 -7.632812 30.6875 -9.28125 31.40625 -11.34375 L 37.984375 -11.34375 C 36.992188 -7.8125 35.023438 -4.9375 32.078125 -2.71875 C 29.128906 -0.5 25.460938 0.609375 21.078125 0.609375 C 17.585938 0.609375 14.460938 -0.171875 11.703125 -1.734375 C 8.953125 -3.304688 6.796875 -5.535156 5.234375 -8.421875 C 3.671875 -11.304688 2.890625 -14.648438 2.890625 -18.453125 C 2.890625 -22.253906 3.648438 -25.585938 5.171875 -28.453125 C 6.691406 -31.316406 8.828125 -33.519531 11.578125 -35.0625 C 14.328125 -36.601562 17.492188 -37.375 21.078125 -37.375 C 24.566406 -37.375 27.648438 -36.613281 30.328125 -35.09375 C 33.015625 -33.570312 35.082031 -31.476562 36.53125 -28.8125 C 37.988281 -26.15625 38.71875 -23.148438 38.71875 -19.796875 Z M 32.40625 -21.078125 C 32.40625 -23.398438 31.890625 -25.398438 30.859375 -27.078125 C 29.835938 -28.753906 28.441406 -30.03125 26.671875 -30.90625 C 24.910156 -31.78125 22.953125 -32.21875 20.796875 -32.21875 C 17.710938 -32.21875 15.082031 -31.234375 12.90625 -29.265625 C 10.738281 -27.296875 9.5 -24.566406 9.1875 -21.078125 Z M 32.40625 -21.078125 "/></g></g><g style="fill:#4b5b71;fill-opacity:1;"><g transform="translate(89.657389, 69.10558)"><path style="stroke:none" d="M 12.609375 -31.75 L 12.609375 -10.0625 C 12.609375 -8.269531 12.988281 -7.003906 13.75 -6.265625 C 14.507812 -5.535156 15.832031 -5.171875 17.71875 -5.171875 L 22.21875 -5.171875 L 22.21875 0 L 16.703125 0 C 13.304688 0 10.757812 -0.78125 9.0625 -2.34375 C 7.363281 -3.914062 6.515625 -6.488281 6.515625 -10.0625 L 6.515625 -31.75 L 1.75 -31.75 L 1.75 -36.78125 L 6.515625 -36.78125 L 6.515625 -46.03125 L 12.609375 -46.03125 L 12.609375 -36.78125 L 22.21875 -36.78125 L 22.21875 -31.75 Z M 12.609375 -31.75 "/></g></g><g style="fill:#4b5b71;fill-opacity:1;"><g transform="translate(114.080834, 69.10558)"><path style="stroke:none" d="M 54.15625 -36.78125 L 42.6875 0 L 36.375 0 L 27.515625 -29.1875 L 18.65625 0 L 12.34375 0 L 0.8125 -36.78125 L 7.046875 -36.78125 L 15.5 -5.90625 L 24.625 -36.78125 L 30.875 -36.78125 L 39.796875 -5.84375 L 48.125 -36.78125 Z M 54.15625 -36.78125 "/></g></g><g style="fill:#4b5b71;fill-opacity:1;"><g transform="translate(169.100679, 69.10558)"><path style="stroke:none" d="M 21.203125 0.609375 C 17.765625 0.609375 14.644531 -0.171875 11.84375 -1.734375 C 9.050781 -3.304688 6.859375 -5.535156 5.265625 -8.421875 C 3.679688 -11.304688 2.890625 -14.648438 2.890625 -18.453125 C 2.890625 -22.210938 3.703125 -25.535156 5.328125 -28.421875 C 6.960938 -31.304688 9.1875 -33.519531 12 -35.0625 C 14.820312 -36.601562 17.976562 -37.375 21.46875 -37.375 C 24.957031 -37.375 28.113281 -36.601562 30.9375 -35.0625 C 33.757812 -33.519531 35.984375 -31.316406 37.609375 -28.453125 C 39.242188 -25.585938 40.0625 -22.253906 40.0625 -18.453125 C 40.0625 -14.648438 39.222656 -11.304688 37.546875 -8.421875 C 35.867188 -5.535156 33.597656 -3.304688 30.734375 -1.734375 C 27.867188 -0.171875 24.691406 0.609375 21.203125 0.609375 Z M 21.203125 -4.765625 C 23.398438 -4.765625 25.457031 -5.28125 27.375 -6.3125 C 29.300781 -7.34375 30.859375 -8.882812 32.046875 -10.9375 C 33.234375 -13 33.828125 -15.503906 33.828125 -18.453125 C 33.828125 -21.410156 33.242188 -23.914062 32.078125 -25.96875 C 30.910156 -28.03125 29.390625 -29.5625 27.515625 -30.5625 C 25.640625 -31.570312 23.601562 -32.078125 21.40625 -32.078125 C 19.164062 -32.078125 17.117188 -31.570312 15.265625 -30.5625 C 13.410156 -29.5625 11.921875 -28.03125 10.796875 -25.96875 C 9.679688 -23.914062 9.125 -21.410156 9.125 -18.453125 C 9.125 -15.453125 9.671875 -12.921875 10.765625 -10.859375 C 11.867188 -8.804688 13.335938 -7.273438 15.171875 -6.265625 C 17.003906 -5.265625 19.015625 -4.765625 21.203125 -4.765625 Z M 21.203125 -4.765625 "/></g></g><g style="fill:#4b5b71;fill-opacity:1;"><g transform="translate(212.043005, 69.10558)"><path style="stroke:none" d="M 11.28125 -30.796875 C 12.351562 -32.898438 13.882812 -34.535156 15.875 -35.703125 C 17.863281 -36.867188 20.289062 -37.453125 23.15625 -37.453125 L 23.15625 -31.140625 L 21.546875 -31.140625 C 14.703125 -31.140625 11.28125 -27.425781 11.28125 -20 L 11.28125 0 L 5.171875 0 L 5.171875 -36.78125 L 11.28125 -36.78125 Z M 11.28125 -30.796875 "/></g></g><g style="fill:#4b5b71;fill-opacity:1;"><g transform="translate(237.070334, 69.10558)"><path style="stroke:none" d="M 25.703125 0 L 11.28125 -16.234375 L 11.28125 0 L 5.171875 0 L 5.171875 -49.65625 L 11.28125 -49.65625 L 11.28125 -20.46875 L 25.4375 -36.78125 L 33.953125 -36.78125 L 16.640625 -18.453125 L 34.03125 0 Z M 25.703125 0 "/></g></g><g style="fill:#4b5b71;fill-opacity:1;"><g transform="translate(271.625488, 69.10558)"><path style="stroke:none" d=""/></g></g><g style="fill:#4b5b71;fill-opacity:1;"><g transform="translate(289.540483, 69.10558)"><path style="stroke:none" d="M 41.078125 0 L 34.96875 -6.171875 C 32.6875 -3.804688 30.242188 -2.050781 27.640625 -0.90625 C 25.046875 0.238281 22.117188 0.8125 18.859375 0.8125 C 15.640625 0.8125 12.785156 0.226562 10.296875 -0.9375 C 7.816406 -2.101562 5.894531 -3.757812 4.53125 -5.90625 C 3.164062 -8.050781 2.484375 -10.554688 2.484375 -13.421875 C 2.484375 -16.691406 3.410156 -19.566406 5.265625 -22.046875 C 7.117188 -24.523438 9.859375 -26.484375 13.484375 -27.921875 C 12.054688 -29.617188 11.03125 -31.179688 10.40625 -32.609375 C 9.78125 -34.046875 9.46875 -35.613281 9.46875 -37.3125 C 9.46875 -39.28125 9.96875 -41.054688 10.96875 -42.640625 C 11.976562 -44.234375 13.421875 -45.476562 15.296875 -46.375 C 17.179688 -47.269531 19.351562 -47.71875 21.8125 -47.71875 C 24.226562 -47.71875 26.328125 -47.242188 28.109375 -46.296875 C 29.898438 -45.359375 31.242188 -44.050781 32.140625 -42.375 C 33.035156 -40.695312 33.441406 -38.832031 33.359375 -36.78125 L 27.25 -36.78125 C 27.289062 -38.613281 26.773438 -40.054688 25.703125 -41.109375 C 24.628906 -42.160156 23.242188 -42.6875 21.546875 -42.6875 C 19.753906 -42.6875 18.304688 -42.179688 17.203125 -41.171875 C 16.109375 -40.160156 15.5625 -38.875 15.5625 -37.3125 C 15.5625 -35.96875 15.929688 -34.671875 16.671875 -33.421875 C 17.410156 -32.171875 18.65625 -30.628906 20.40625 -28.796875 L 34.359375 -14.765625 L 35.5625 -16.640625 L 40.125 -24.296875 L 46.703125 -24.296875 L 41.203125 -14.765625 C 40.441406 -13.421875 39.546875 -12.007812 38.515625 -10.53125 L 49.0625 0 Z M 18.859375 -4.421875 C 21.273438 -4.421875 23.453125 -4.890625 25.390625 -5.828125 C 27.335938 -6.773438 29.1875 -8.234375 30.9375 -10.203125 L 17.1875 -24.03125 C 11.457031 -21.832031 8.59375 -18.363281 8.59375 -13.625 C 8.59375 -10.976562 9.539062 -8.78125 11.4375 -7.03125 C 13.34375 -5.289062 15.816406 -4.421875 18.859375 -4.421875 Z M 18.859375 -4.421875 "/></g></g><g style="fill:#4b5b71;fill-opacity:1;"><g transform="translate(339.125442, 69.10558)"><path style="stroke:none" d=""/></g></g><g style="fill:#4b5b71;fill-opacity:1;"><g transform="translate(357.040458, 69.10558)"><path style="stroke:none" d="M 33.953125 -46.78125 L 33.953125 -41.8125 L 21.203125 -41.8125 L 21.203125 0 L 15.09375 0 L 15.09375 -41.8125 L 2.28125 -41.8125 L 2.28125 -46.78125 Z M 33.953125 -46.78125 "/></g></g><g style="fill:#4b5b71;fill-opacity:1;"><g transform="translate(393.340151, 69.10558)"><path style="stroke:none" d="M 38.71875 -19.796875 C 38.71875 -18.628906 38.648438 -17.398438 38.515625 -16.109375 L 9.125 -16.109375 C 9.351562 -12.484375 10.59375 -9.648438 12.84375 -7.609375 C 15.101562 -5.578125 17.847656 -4.5625 21.078125 -4.5625 C 23.710938 -4.5625 25.910156 -5.175781 27.671875 -6.40625 C 29.441406 -7.632812 30.6875 -9.28125 31.40625 -11.34375 L 37.984375 -11.34375 C 36.992188 -7.8125 35.023438 -4.9375 32.078125 -2.71875 C 29.128906 -0.5 25.460938 0.609375 21.078125 0.609375 C 17.585938 0.609375 14.460938 -0.171875 11.703125 -1.734375 C 8.953125 -3.304688 6.796875 -5.535156 5.234375 -8.421875 C 3.671875 -11.304688 2.890625 -14.648438 2.890625 -18.453125 C 2.890625 -22.253906 3.648438 -25.585938 5.171875 -28.453125 C 6.691406 -31.316406 8.828125 -33.519531 11.578125 -35.0625 C 14.328125 -36.601562 17.492188 -37.375 21.078125 -37.375 C 24.566406 -37.375 27.648438 -36.613281 30.328125 -35.09375 C 33.015625 -33.570312 35.082031 -31.476562 36.53125 -28.8125 C 37.988281 -26.15625 38.71875 -23.148438 38.71875 -19.796875 Z M 32.40625 -21.078125 C 32.40625 -23.398438 31.890625 -25.398438 30.859375 -27.078125 C 29.835938 -28.753906 28.441406 -30.03125 26.671875 -30.90625 C 24.910156 -31.78125 22.953125 -32.21875 20.796875 -32.21875 C 17.710938 -32.21875 15.082031 -31.234375 12.90625 -29.265625 C 10.738281 -27.296875 9.5 -24.566406 9.1875 -21.078125 Z M 32.40625 -21.078125 "/></g></g><g style="fill:#4b5b71;fill-opacity:1;"><g transform="translate(434.940527, 69.10558)"><path style="stroke:none" d="M 2.890625 -18.453125 C 2.890625 -22.253906 3.648438 -25.578125 5.171875 -28.421875 C 6.691406 -31.265625 8.800781 -33.46875 11.5 -35.03125 C 14.207031 -36.59375 17.304688 -37.375 20.796875 -37.375 C 25.316406 -37.375 29.039062 -36.273438 31.96875 -34.078125 C 34.90625 -31.890625 36.84375 -28.851562 37.78125 -24.96875 L 31.203125 -24.96875 C 30.578125 -27.195312 29.359375 -28.960938 27.546875 -30.265625 C 25.734375 -31.566406 23.484375 -32.21875 20.796875 -32.21875 C 17.304688 -32.21875 14.488281 -31.019531 12.34375 -28.625 C 10.195312 -26.226562 9.125 -22.835938 9.125 -18.453125 C 9.125 -14.023438 10.195312 -10.601562 12.34375 -8.1875 C 14.488281 -5.769531 17.304688 -4.5625 20.796875 -4.5625 C 23.484375 -4.5625 25.722656 -5.1875 27.515625 -6.4375 C 29.304688 -7.695312 30.535156 -9.488281 31.203125 -11.8125 L 37.78125 -11.8125 C 36.800781 -8.050781 34.832031 -5.039062 31.875 -2.78125 C 28.925781 -0.519531 25.234375 0.609375 20.796875 0.609375 C 17.304688 0.609375 14.207031 -0.171875 11.5 -1.734375 C 8.800781 -3.304688 6.691406 -5.523438 5.171875 -8.390625 C 3.648438 -11.253906 2.890625 -14.609375 2.890625 -18.453125 Z M 2.890625 -18.453125 "/></g></g><g style="fill:#4b5b71;fill-opacity:1;"><g transform="translate(475.668613, 69.10558)"><path style="stroke:none" d="M 23.421875 -37.453125 C 26.191406 -37.453125 28.695312 -36.859375 30.9375 -35.671875 C 33.175781 -34.484375 34.929688 -32.703125 36.203125 -30.328125 C 37.484375 -27.960938 38.125 -25.078125 38.125 -21.671875 L 38.125 0 L 32.078125 0 L 32.078125 -20.796875 C 32.078125 -24.472656 31.160156 -27.28125 29.328125 -29.21875 C 27.492188 -31.164062 24.988281 -32.140625 21.8125 -32.140625 C 18.59375 -32.140625 16.03125 -31.132812 14.125 -29.125 C 12.226562 -27.113281 11.28125 -24.179688 11.28125 -20.328125 L 11.28125 0 L 5.171875 0 L 5.171875 -49.65625 L 11.28125 -49.65625 L 11.28125 -31.546875 C 12.488281 -33.421875 14.15625 -34.875 16.28125 -35.90625 C 18.40625 -36.9375 20.785156 -37.453125 23.421875 -37.453125 Z M 23.421875 -37.453125 "/></g></g><g style="fill:#4b5b71;fill-opacity:1;"><g transform="translate(518.610939, 69.10558)"><path style="stroke:none" d="M 23.078125 -37.453125 C 27.554688 -37.453125 31.179688 -36.097656 33.953125 -33.390625 C 36.734375 -30.679688 38.125 -26.773438 38.125 -21.671875 L 38.125 0 L 32.078125 0 L 32.078125 -20.796875 C 32.078125 -24.472656 31.160156 -27.28125 29.328125 -29.21875 C 27.492188 -31.164062 24.988281 -32.140625 21.8125 -32.140625 C 18.59375 -32.140625 16.03125 -31.132812 14.125 -29.125 C 12.226562 -27.113281 11.28125 -24.179688 11.28125 -20.328125 L 11.28125 0 L 5.171875 0 L 5.171875 -36.78125 L 11.28125 -36.78125 L 11.28125 -31.546875 C 12.488281 -33.421875 14.128906 -34.875 16.203125 -35.90625 C 18.285156 -36.9375 20.578125 -37.453125 23.078125 -37.453125 Z M 23.078125 -37.453125 "/></g></g><g style="fill:#4b5b71;fill-opacity:1;"><g transform="translate(561.553264, 69.10558)"><path style="stroke:none" d="M 21.203125 0.609375 C 17.765625 0.609375 14.644531 -0.171875 11.84375 -1.734375 C 9.050781 -3.304688 6.859375 -5.535156 5.265625 -8.421875 C 3.679688 -11.304688 2.890625 -14.648438 2.890625 -18.453125 C 2.890625 -22.210938 3.703125 -25.535156 5.328125 -28.421875 C 6.960938 -31.304688 9.1875 -33.519531 12 -35.0625 C 14.820312 -36.601562 17.976562 -37.375 21.46875 -37.375 C 24.957031 -37.375 28.113281 -36.601562 30.9375 -35.0625 C 33.757812 -33.519531 35.984375 -31.316406 37.609375 -28.453125 C 39.242188 -25.585938 40.0625 -22.253906 40.0625 -18.453125 C 40.0625 -14.648438 39.222656 -11.304688 37.546875 -8.421875 C 35.867188 -5.535156 33.597656 -3.304688 30.734375 -1.734375 C 27.867188 -0.171875 24.691406 0.609375 21.203125 0.609375 Z M 21.203125 -4.765625 C 23.398438 -4.765625 25.457031 -5.28125 27.375 -6.3125 C 29.300781 -7.34375 30.859375 -8.882812 32.046875 -10.9375 C 33.234375 -13 33.828125 -15.503906 33.828125 -18.453125 C 33.828125 -21.410156 33.242188 -23.914062 32.078125 -25.96875 C 30.910156 -28.03125 29.390625 -29.5625 27.515625 -30.5625 C 25.640625 -31.570312 23.601562 -32.078125 21.40625 -32.078125 C 19.164062 -32.078125 17.117188 -31.570312 15.265625 -30.5625 C 13.410156 -29.5625 11.921875 -28.03125 10.796875 -25.96875 C 9.679688 -23.914062 9.125 -21.410156 9.125 -18.453125 C 9.125 -15.453125 9.671875 -12.921875 10.765625 -10.859375 C 11.867188 -8.804688 13.335938 -7.273438 15.171875 -6.265625 C 17.003906 -5.265625 19.015625 -4.765625 21.203125 -4.765625 Z M 21.203125 -4.765625 "/></g></g><g style="fill:#4b5b71;fill-opacity:1;"><g transform="translate(604.49559, 69.10558)"><path style="stroke:none" d="M 11.28125 -49.65625 L 11.28125 0 L 5.171875 0 L 5.171875 -49.65625 Z M 11.28125 -49.65625 "/></g></g><g style="fill:#4b5b71;fill-opacity:1;"><g transform="translate(621.001525, 69.10558)"><path style="stroke:none" d="M 21.203125 0.609375 C 17.765625 0.609375 14.644531 -0.171875 11.84375 -1.734375 C 9.050781 -3.304688 6.859375 -5.535156 5.265625 -8.421875 C 3.679688 -11.304688 2.890625 -14.648438 2.890625 -18.453125 C 2.890625 -22.210938 3.703125 -25.535156 5.328125 -28.421875 C 6.960938 -31.304688 9.1875 -33.519531 12 -35.0625 C 14.820312 -36.601562 17.976562 -37.375 21.46875 -37.375 C 24.957031 -37.375 28.113281 -36.601562 30.9375 -35.0625 C 33.757812 -33.519531 35.984375 -31.316406 37.609375 -28.453125 C 39.242188 -25.585938 40.0625 -22.253906 40.0625 -18.453125 C 40.0625 -14.648438 39.222656 -11.304688 37.546875 -8.421875 C 35.867188 -5.535156 33.597656 -3.304688 30.734375 -1.734375 C 27.867188 -0.171875 24.691406 0.609375 21.203125 0.609375 Z M 21.203125 -4.765625 C 23.398438 -4.765625 25.457031 -5.28125 27.375 -6.3125 C 29.300781 -7.34375 30.859375 -8.882812 32.046875 -10.9375 C 33.234375 -13 33.828125 -15.503906 33.828125 -18.453125 C 33.828125 -21.410156 33.242188 -23.914062 32.078125 -25.96875 C 30.910156 -28.03125 29.390625 -29.5625 27.515625 -30.5625 C 25.640625 -31.570312 23.601562 -32.078125 21.40625 -32.078125 C 19.164062 -32.078125 17.117188 -31.570312 15.265625 -30.5625 C 13.410156 -29.5625 11.921875 -28.03125 10.796875 -25.96875 C 9.679688 -23.914062 9.125 -21.410156 9.125 -18.453125 C 9.125 -15.453125 9.671875 -12.921875 10.765625 -10.859375 C 11.867188 -8.804688 13.335938 -7.273438 15.171875 -6.265625 C 17.003906 -5.265625 19.015625 -4.765625 21.203125 -4.765625 Z M 21.203125 -4.765625 "/></g></g><g style="fill:#4b5b71;fill-opacity:1;"><g transform="translate(663.943891, 69.10558)"><path style="stroke:none" d="M 20.328125 -37.375 C 23.503906 -37.375 26.289062 -36.679688 28.6875 -35.296875 C 31.082031 -33.910156 32.863281 -32.164062 34.03125 -30.0625 L 34.03125 -36.78125 L 40.203125 -36.78125 L 40.203125 0.8125 C 40.203125 4.164062 39.484375 7.148438 38.046875 9.765625 C 36.617188 12.378906 34.570312 14.425781 31.90625 15.90625 C 29.25 17.382812 26.148438 18.125 22.609375 18.125 C 17.785156 18.125 13.757812 16.984375 10.53125 14.703125 C 7.3125 12.421875 5.410156 9.3125 4.828125 5.375 L 10.875 5.375 C 11.539062 7.601562 12.925781 9.398438 15.03125 10.765625 C 17.132812 12.128906 19.660156 12.8125 22.609375 12.8125 C 25.972656 12.8125 28.71875 11.757812 30.84375 9.65625 C 32.96875 7.5625 34.03125 4.613281 34.03125 0.8125 L 34.03125 -6.90625 C 32.820312 -4.757812 31.03125 -2.96875 28.65625 -1.53125 C 26.28125 -0.101562 23.503906 0.609375 20.328125 0.609375 C 17.066406 0.609375 14.101562 -0.195312 11.4375 -1.8125 C 8.78125 -3.425781 6.691406 -5.6875 5.171875 -8.59375 C 3.648438 -11.5 2.890625 -14.804688 2.890625 -18.515625 C 2.890625 -22.273438 3.648438 -25.578125 5.171875 -28.421875 C 6.691406 -31.265625 8.78125 -33.46875 11.4375 -35.03125 C 14.101562 -36.59375 17.066406 -37.375 20.328125 -37.375 Z M 34.03125 -18.453125 C 34.03125 -21.222656 33.46875 -23.640625 32.34375 -25.703125 C 31.226562 -27.765625 29.71875 -29.34375 27.8125 -30.4375 C 25.914062 -31.53125 23.828125 -32.078125 21.546875 -32.078125 C 19.265625 -32.078125 17.179688 -31.539062 15.296875 -30.46875 C 13.421875 -29.394531 11.921875 -27.828125 10.796875 -25.765625 C 9.679688 -23.710938 9.125 -21.296875 9.125 -18.515625 C 9.125 -15.703125 9.679688 -13.253906 10.796875 -11.171875 C 11.921875 -9.085938 13.421875 -7.5 15.296875 -6.40625 C 17.179688 -5.3125 19.265625 -4.765625 21.546875 -4.765625 C 23.828125 -4.765625 25.914062 -5.3125 27.8125 -6.40625 C 29.71875 -7.5 31.226562 -9.085938 32.34375 -11.171875 C 33.46875 -13.253906 34.03125 -15.679688 34.03125 -18.453125 Z M 34.03125 -18.453125 "/></g></g><g style="fill:#4b5b71;fill-opacity:1;"><g transform="translate(709.301707, 69.10558)"><path style="stroke:none" d="M 36.84375 -36.78125 L 14.703125 17.3125 L 8.390625 17.3125 L 15.640625 -0.40625 L 0.8125 -36.78125 L 7.578125 -36.78125 L 19.125 -6.984375 L 30.53125 -36.78125 Z M 36.84375 -36.78125 "/></g></g></g></g></g><g clip-rule="nonzero" clip-path="url(#61d9414d41)"><g transform="matrix(1,0,0,1,11,101)"><g id="d7509d975a" clip-path="url(#9b8baeedfa)"><g clip-rule="nonzero" clip-path="url(#b807bb3b17)"><path style=" stroke:none;fill-rule:nonzero;fill:#2278e4;fill-opacity:1;" d="M 0.265625 0.972656 L 23.207031 0.972656 L 23.207031 46.671875 L 0.265625 46.671875 Z M 0.265625 0.972656 "/></g></g></g></g></g></g></g></svg>